<svg width="43" height="43" viewBox="0 0 43 43" fill="none" xmlns="http://www.w3.org/2000/svg">
<circle opacity="0.8" cx="21.5" cy="21.5" r="21.5" transform="rotate(-180 21.5 21.5)" fill="#515151"/>
<path fill-rule="evenodd" clip-rule="evenodd" d="M17.057 32.276C16.807 32.026 16.6666 31.6869 16.6666 31.3333C16.6666 30.9798 16.807 30.6407 17.057 30.3907L25.4476 22L17.057 13.6093C16.8141 13.3579 16.6797 13.0211 16.6827 12.6715C16.6858 12.3219 16.826 11.9875 17.0732 11.7402C17.3204 11.493 17.6548 11.3528 18.0044 11.3498C18.354 11.3467 18.6908 11.4811 18.9423 11.724L28.2756 21.0573C28.5256 21.3074 28.666 21.6464 28.666 22C28.666 22.3536 28.5256 22.6926 28.2756 22.9427L18.9423 32.276C18.6923 32.526 18.3532 32.6664 17.9996 32.6664C17.6461 32.6664 17.307 32.526 17.057 32.276Z" fill="white"/>
</svg>
