<svg id="svg" version="1.1" xmlns="http://www.w3.org/2000/svg" xmlns:xlink="http://www.w3.org/1999/xlink" width="400" height="225.04347826086956" viewBox="0, 0, 400,225.04347826086956"><g id="svgg"><path id="path0" d="M156.499 102.138 L 156.556 137.423 200.000 137.423 L 243.444 137.423 243.501 102.138 L 243.558 66.854 200.000 66.854 L 156.442 66.854 156.499 102.138 M238.324 102.138 L 238.267 132.245 200.000 132.245 L 161.733 132.245 161.676 102.138 L 161.619 72.032 200.000 72.032 L 238.381 72.032 238.324 102.138 M222.036 78.101 C 213.826 81.023,215.278 92.766,223.978 93.796 C 230.837 94.608,235.288 85.565,230.590 80.364 C 228.444 77.988,224.950 77.064,222.036 78.101 M181.020 90.321 C 179.619 94.066,178.327 97.510,178.150 97.974 C 177.973 98.438,177.683 99.198,177.505 99.662 C 177.328 100.127,176.856 101.418,176.456 102.532 C 176.056 103.647,175.644 104.654,175.540 104.772 C 175.437 104.890,175.352 105.128,175.352 105.301 C 175.352 105.474,175.209 105.935,175.033 106.325 C 174.858 106.715,173.533 110.225,172.088 114.125 C 170.643 118.025,169.317 121.535,169.142 121.925 C 168.967 122.315,168.824 122.747,168.824 122.885 C 168.824 123.022,168.720 123.311,168.592 123.526 C 168.464 123.741,168.168 124.474,167.934 125.155 L 167.508 126.393 199.829 126.450 C 217.606 126.481,232.198 126.459,232.256 126.401 C 232.380 126.277,216.519 102.420,216.313 102.420 C 216.194 102.420,213.542 104.348,212.493 105.197 C 211.377 106.100,205.878 110.121,205.627 110.217 C 205.438 110.290,204.469 109.254,203.036 107.446 C 201.778 105.858,200.579 104.356,200.373 104.108 C 200.166 103.860,196.371 99.125,191.939 93.585 C 187.506 88.044,183.810 83.512,183.724 83.512 C 183.638 83.513,182.421 86.577,181.020 90.321 M164.969 148.917 C 161.218 150.072,160.817 156.072,164.367 157.927 C 165.348 158.439,167.515 158.340,168.267 157.749 L 168.897 157.254 169.225 157.749 C 170.056 159.001,170.400 158.422,170.400 155.768 L 170.400 153.292 168.584 153.292 L 166.768 153.292 166.839 153.911 C 166.901 154.446,167.031 154.545,167.793 154.643 C 169.293 154.834,168.747 156.496,167.096 156.761 C 164.321 157.207,162.718 154.061,164.344 151.361 C 165.256 149.846,167.585 149.793,168.375 151.269 C 168.716 151.906,170.174 151.910,170.174 151.274 C 170.174 150.485,168.877 149.273,167.636 148.905 C 166.288 148.505,166.308 148.505,164.969 148.917 M197.524 148.841 C 192.438 150.139,193.367 158.211,198.604 158.237 C 203.931 158.263,205.125 150.412,200.025 148.897 C 198.768 148.524,198.767 148.524,197.524 148.841 M227.327 148.915 C 222.369 150.442,223.517 158.244,228.700 158.244 C 234.082 158.244,235.063 150.042,229.825 148.833 C 228.464 148.518,228.634 148.513,227.327 148.915 M137.137 153.573 L 137.198 158.132 138.098 158.132 L 138.998 158.132 139.059 153.573 L 139.120 149.015 138.098 149.015 L 137.076 149.015 137.137 153.573 M141.188 153.563 L 141.249 158.132 142.093 158.202 L 142.938 158.271 142.938 155.106 C 142.938 153.147,143.023 151.941,143.163 151.941 C 143.286 151.941,143.388 152.063,143.388 152.212 C 143.388 152.360,143.704 153.348,144.090 154.406 C 144.476 155.465,144.948 156.767,145.138 157.299 C 145.847 159.286,146.664 158.682,147.821 155.318 C 148.353 153.770,148.856 152.352,148.937 152.167 C 149.202 151.565,149.411 153.047,149.439 155.726 L 149.465 158.273 150.197 158.202 L 150.929 158.132 150.989 153.573 L 151.050 149.015 149.722 149.015 C 148.191 149.015,148.401 148.716,147.187 152.617 C 146.782 153.917,146.418 155.024,146.379 155.078 C 146.169 155.360,145.716 154.399,144.880 151.903 L 143.950 149.128 142.539 149.061 L 141.127 148.993 141.188 153.563 M155.543 149.345 C 155.543 149.527,155.401 150.008,155.228 150.414 C 155.055 150.821,154.737 151.609,154.522 152.167 C 154.307 152.724,153.993 153.499,153.824 153.889 C 153.655 154.279,153.517 154.711,153.517 154.849 C 153.517 154.986,153.428 155.275,153.320 155.490 C 152.158 157.788,152.141 158.292,153.231 158.202 C 153.999 158.138,154.101 158.046,154.443 157.119 L 154.815 156.106 156.669 156.106 L 158.523 156.106 158.918 157.119 C 159.274 158.033,159.392 158.138,160.129 158.202 C 161.227 158.296,161.208 158.068,159.797 154.381 C 159.165 152.730,158.448 150.847,158.205 150.197 L 157.762 149.015 156.652 149.015 C 155.828 149.015,155.543 149.100,155.543 149.345 M172.477 153.573 L 172.538 158.132 175.914 158.132 L 179.291 158.132 179.361 157.408 L 179.431 156.684 176.885 156.620 L 174.339 156.556 174.269 155.452 C 174.180 154.051,174.307 153.975,176.759 153.971 C 178.709 153.967,178.728 153.962,178.728 153.405 C 178.728 152.847,178.709 152.842,176.759 152.838 C 174.341 152.834,174.177 152.744,174.268 151.469 L 174.339 150.478 176.759 150.414 L 179.178 150.351 179.178 149.683 L 179.178 149.015 175.797 149.015 L 172.416 149.015 172.477 153.573 M184.806 153.617 L 184.806 158.244 185.594 158.244 L 186.382 158.244 186.382 155.205 C 186.382 153.466,186.472 152.167,186.592 152.167 C 186.784 152.167,187.932 153.836,189.970 157.074 C 190.674 158.194,190.771 158.264,191.534 158.200 L 192.347 158.132 192.408 153.573 L 192.469 149.015 191.563 149.015 L 190.658 149.015 190.658 151.941 C 190.658 153.551,190.581 154.868,190.487 154.868 C 190.393 154.868,189.501 153.576,188.505 151.998 L 186.693 149.128 185.749 149.059 L 184.806 148.989 184.806 153.617 M204.164 149.680 C 204.164 150.338,204.178 150.345,205.571 150.411 L 206.978 150.478 207.040 154.375 L 207.101 158.271 207.940 158.201 L 208.779 158.132 208.891 154.305 L 209.004 150.478 210.298 150.411 C 211.566 150.345,211.593 150.330,211.593 149.679 L 211.593 149.015 207.878 149.015 L 204.164 149.015 204.164 149.680 M216.770 153.643 L 216.770 158.271 217.614 158.202 L 218.458 158.132 218.571 156.218 L 218.683 154.305 220.597 154.192 C 222.477 154.082,222.511 154.070,222.580 153.470 L 222.651 152.860 220.667 152.795 L 218.683 152.729 218.683 151.604 L 218.683 150.478 220.934 150.366 L 223.185 150.253 223.256 149.634 L 223.328 149.015 220.049 149.015 L 216.770 149.015 216.770 153.643 M235.003 152.399 C 235.003 157.416,235.540 158.242,238.803 158.243 C 242.080 158.245,242.656 157.373,242.656 152.414 L 242.656 149.015 241.756 149.015 L 240.855 149.015 240.855 152.367 C 240.855 156.459,240.707 156.781,238.829 156.781 C 236.952 156.781,236.804 156.459,236.804 152.367 L 236.804 149.015 235.903 149.015 L 235.003 149.015 235.003 152.399 M244.907 153.630 L 244.907 158.244 245.695 158.244 L 246.483 158.244 246.483 155.219 C 246.483 153.555,246.563 152.143,246.661 152.083 C 246.760 152.022,247.699 153.358,248.749 155.052 L 250.658 158.132 251.553 158.132 L 252.448 158.132 252.509 153.573 L 252.570 149.015 251.665 149.015 L 250.760 149.015 250.752 152.110 C 250.743 155.754,250.872 155.779,248.396 151.654 L 246.820 149.028 245.864 149.022 L 244.907 149.015 244.907 153.630 M254.638 153.573 L 254.699 158.132 256.782 158.196 C 257.928 158.232,259.278 158.150,259.783 158.014 C 263.105 157.119,263.963 151.901,261.141 149.749 L 260.179 149.015 257.378 149.015 L 254.577 149.015 254.638 153.573 M199.895 150.482 C 202.268 151.709,201.722 156.399,199.157 156.815 C 197.378 157.104,196.061 155.744,196.061 153.619 C 196.061 150.949,197.895 149.448,199.895 150.482 M229.847 150.489 C 231.957 151.581,231.939 155.498,229.819 156.618 C 228.549 157.288,226.933 156.599,226.318 155.126 C 225.112 152.240,227.405 149.226,229.847 150.489 M259.156 150.606 C 262.275 151.472,261.270 156.669,257.983 156.669 C 256.366 156.669,256.387 156.711,256.387 153.517 C 256.387 150.134,256.610 149.899,259.156 150.606 M157.437 152.790 C 158.184 154.747,158.221 154.643,156.781 154.643 C 155.345 154.643,155.343 154.638,156.033 152.673 C 156.650 150.915,156.723 150.921,157.437 152.790 " stroke="none" fill="#eeeeee" fill-rule="evenodd"></path><path id="path1" d="M0.225 112.549 L 0.225 225.098 200.000 225.098 L 399.775 225.098 399.775 112.549 L 399.775 0.000 200.000 0.000 L 0.225 0.000 0.225 112.549 M243.951 101.946 C 243.993 127.944,243.941 137.456,243.755 137.680 C 243.430 138.071,157.158 138.143,156.429 137.752 C 155.987 137.516,155.705 66.993,156.144 66.554 C 156.227 66.471,176.004 66.428,200.094 66.460 L 243.894 66.517 243.951 101.946 M162.221 72.407 C 162.138 72.489,162.071 85.911,162.071 102.232 L 162.071 131.908 200.000 131.908 L 237.929 131.908 237.929 102.082 L 237.929 72.257 200.150 72.257 C 179.372 72.257,162.304 72.324,162.221 72.407 M228.137 78.117 C 236.229 81.907,233.456 94.091,224.501 94.091 C 216.226 94.091,213.057 81.997,220.391 78.406 C 223.227 77.017,225.598 76.928,228.137 78.117 M185.372 84.786 C 186.113 85.735,186.823 86.621,186.950 86.756 C 187.077 86.890,187.685 87.659,188.300 88.464 C 188.916 89.268,189.474 89.977,189.541 90.039 C 189.607 90.101,190.062 90.655,190.553 91.271 C 191.045 91.886,191.615 92.595,191.821 92.847 C 192.521 93.698,193.695 95.165,194.196 95.811 C 194.741 96.515,197.003 99.336,197.600 100.058 C 197.806 100.307,198.934 101.725,200.108 103.209 C 201.282 104.694,202.298 105.959,202.368 106.021 C 202.437 106.083,202.996 106.790,203.610 107.592 C 205.636 110.238,205.539 110.212,207.310 108.570 C 207.620 108.283,207.944 108.047,208.029 108.047 C 208.114 108.047,208.318 107.916,208.481 107.756 C 209.259 106.996,216.001 102.127,216.306 102.106 C 216.705 102.079,232.739 125.929,232.747 126.562 C 232.752 126.935,231.044 126.956,200.000 126.956 L 167.248 126.956 167.248 126.371 C 167.248 126.049,167.389 125.466,167.562 125.076 C 167.735 124.686,169.214 120.771,170.850 116.376 C 172.485 111.981,173.952 108.081,174.109 107.710 C 174.266 107.338,174.568 106.528,174.780 105.909 C 174.993 105.290,175.259 104.607,175.372 104.392 C 175.485 104.177,175.577 103.889,175.577 103.751 C 175.577 103.613,175.715 103.182,175.883 102.791 C 176.471 101.429,176.739 100.741,177.195 99.423 C 177.448 98.692,177.794 97.827,177.965 97.500 C 178.136 97.173,178.276 96.734,178.277 96.524 C 178.277 96.315,178.379 96.081,178.503 96.005 C 178.627 95.928,178.728 95.709,178.728 95.519 C 178.728 95.328,178.868 94.853,179.040 94.463 C 179.211 94.073,180.250 91.348,181.347 88.408 C 183.652 82.235,183.491 82.380,185.372 84.786 M168.469 148.806 C 169.580 149.328,170.693 150.781,170.582 151.563 C 170.457 152.438,168.505 152.399,168.047 151.513 C 167.141 149.761,164.692 150.517,164.217 152.697 C 163.613 155.460,166.365 157.811,167.907 155.850 C 168.560 155.021,168.504 154.903,167.417 154.824 C 166.555 154.762,166.453 154.692,166.388 154.123 C 166.267 153.069,166.656 152.841,168.570 152.845 C 170.943 152.850,170.876 152.763,170.801 155.786 L 170.737 158.357 169.973 158.430 C 169.536 158.471,169.135 158.384,169.037 158.225 C 168.905 158.012,168.671 158.041,168.020 158.349 C 164.996 159.784,161.621 157.245,161.621 153.534 C 161.621 149.562,165.046 147.197,168.469 148.806 M200.633 148.674 C 202.792 149.577,203.928 152.002,203.442 154.675 C 202.460 160.079,194.690 160.024,193.935 154.608 C 193.329 150.263,196.888 147.110,200.633 148.674 M230.954 148.855 C 234.664 150.817,234.450 156.904,230.619 158.367 C 227.136 159.697,223.973 157.389,223.973 153.517 C 223.973 149.448,227.553 147.057,230.954 148.855 M139.424 148.921 C 139.603 149.387,139.596 157.302,139.416 157.974 C 139.291 158.440,139.165 158.484,138.125 158.424 L 136.972 158.357 136.911 153.748 C 136.878 151.214,136.900 149.011,136.961 148.852 C 137.130 148.411,139.251 148.470,139.424 148.921 M144.682 150.141 C 144.960 150.945,145.407 152.244,145.675 153.027 L 146.161 154.450 146.437 153.794 C 146.589 153.432,146.787 152.792,146.877 152.370 C 146.967 151.949,147.117 151.503,147.209 151.379 C 147.302 151.255,147.446 150.850,147.529 150.478 C 147.951 148.595,148.017 148.540,149.778 148.612 L 151.379 148.678 151.379 153.517 L 151.379 158.357 150.253 158.357 L 149.128 158.357 149.064 155.928 C 149.025 154.440,148.916 153.552,148.782 153.634 C 148.663 153.708,148.565 153.925,148.565 154.115 C 148.565 154.306,148.429 154.781,148.262 155.171 C 148.096 155.562,147.774 156.468,147.547 157.186 L 147.134 158.491 146.118 158.424 L 145.101 158.357 144.356 156.218 C 143.946 155.042,143.536 153.928,143.445 153.742 C 143.354 153.557,143.228 154.519,143.165 155.881 L 143.050 158.357 141.925 158.357 L 140.799 158.357 140.735 153.967 C 140.651 148.189,140.536 148.530,142.550 148.612 L 144.176 148.678 144.682 150.141 M158.675 150.385 C 159.057 151.386,159.370 152.286,159.370 152.385 C 159.370 152.484,159.521 152.855,159.706 153.210 C 159.891 153.565,160.043 154.012,160.044 154.204 C 160.044 154.396,160.131 154.649,160.236 154.766 C 160.554 155.123,161.603 158.187,161.457 158.333 C 160.820 158.970,159.000 158.436,158.664 157.513 L 158.315 156.556 156.666 156.556 L 155.018 156.556 154.699 157.513 L 154.380 158.469 153.161 158.469 C 151.801 158.469,151.695 158.302,152.258 157.040 C 152.432 156.650,152.753 155.824,152.972 155.205 C 153.191 154.586,153.438 153.979,153.522 153.855 C 153.605 153.731,153.850 153.073,154.065 152.392 C 154.281 151.711,154.586 150.850,154.743 150.478 C 154.901 150.107,155.143 149.524,155.281 149.184 C 155.513 148.616,155.633 148.565,156.757 148.565 L 157.980 148.565 158.675 150.385 M179.516 149.690 L 179.516 150.703 177.096 150.767 L 174.676 150.831 174.676 151.611 L 174.676 152.392 176.927 152.392 L 179.178 152.392 179.178 153.268 C 179.178 154.350,179.026 154.418,176.571 154.418 L 174.676 154.418 174.676 155.310 L 174.676 156.203 177.096 156.267 L 179.516 156.331 179.585 157.406 L 179.654 158.480 175.871 158.419 L 172.088 158.357 172.027 153.748 C 171.993 151.214,172.016 149.008,172.078 148.847 C 172.165 148.619,173.008 148.568,175.853 148.616 L 179.516 148.678 179.516 149.690 M188.511 151.314 C 190.457 154.550,190.405 154.550,190.482 151.322 L 190.546 148.678 191.671 148.678 L 192.797 148.678 192.797 153.517 L 192.797 158.357 191.559 158.420 L 190.321 158.483 188.633 155.693 L 186.944 152.903 186.832 155.630 L 186.719 158.357 185.594 158.357 L 184.468 158.357 184.407 153.748 C 184.334 148.230,184.257 148.523,185.751 148.609 L 186.926 148.678 188.511 151.314 M211.930 149.690 L 211.930 150.703 210.523 150.770 L 209.116 150.837 209.116 154.665 L 209.116 158.493 207.935 158.425 L 206.753 158.357 206.691 154.597 L 206.630 150.837 205.228 150.770 L 203.827 150.703 203.755 149.950 C 203.618 148.520,203.529 148.548,207.930 148.616 L 211.930 148.678 211.930 149.690 M223.410 149.690 L 223.410 150.703 221.216 150.768 L 219.021 150.832 219.021 151.725 L 219.021 152.617 220.947 152.617 L 222.873 152.617 222.804 153.573 L 222.735 154.530 220.878 154.595 L 219.021 154.661 219.017 156.284 C 219.013 158.364,218.909 158.514,217.536 158.427 L 216.432 158.357 216.371 153.748 C 216.294 147.928,215.864 148.541,219.973 148.615 L 223.410 148.678 223.410 149.690 M237.029 151.911 C 237.029 155.942,237.242 156.443,238.953 156.443 C 240.443 156.443,240.630 155.928,240.630 151.828 L 240.630 148.541 241.812 148.610 L 242.994 148.678 242.992 152.504 C 242.991 155.156,242.903 156.484,242.707 156.828 C 241.195 159.491,235.825 159.213,234.847 156.422 C 234.562 155.609,234.438 148.980,234.703 148.715 C 234.785 148.633,235.342 148.565,235.941 148.565 L 237.029 148.565 237.029 151.911 M247.988 150.310 C 248.609 151.269,249.361 152.484,249.657 153.009 C 250.438 154.390,250.513 154.252,250.584 151.322 L 250.647 148.678 251.773 148.678 L 252.898 148.678 252.898 153.517 L 252.898 158.357 251.656 158.423 L 250.414 158.489 249.518 156.996 C 249.025 156.175,248.445 155.234,248.230 154.904 C 248.015 154.575,247.767 154.153,247.680 153.967 C 247.494 153.572,247.021 153.067,246.837 153.067 C 246.766 153.067,246.708 154.282,246.708 155.768 L 246.708 158.469 245.582 158.469 L 244.457 158.469 244.457 153.517 L 244.457 148.565 245.658 148.565 L 246.858 148.565 247.988 150.310 M261.263 149.366 C 264.082 151.612,263.693 156.587,260.576 158.142 C 259.592 158.633,254.463 158.610,254.273 158.113 C 254.090 157.636,254.097 149.379,254.281 148.900 C 254.575 148.133,260.185 148.508,261.263 149.366 M197.607 150.844 C 196.585 151.218,195.992 153.387,196.526 154.797 C 197.625 157.699,201.013 156.727,201.013 153.510 C 201.013 151.247,199.575 150.122,197.607 150.844 M227.621 150.815 C 226.161 151.434,226.055 155.163,227.471 156.091 C 229.392 157.350,231.456 155.415,231.025 152.758 C 230.759 151.121,229.115 150.182,227.621 150.815 M256.837 153.490 L 256.837 156.218 258.050 156.218 C 261.444 156.218,261.580 151.105,258.194 150.860 L 256.837 150.762 256.837 153.490 M156.370 152.809 C 155.812 154.204,155.867 154.418,156.781 154.418 C 157.214 154.418,157.566 154.392,157.563 154.361 C 157.559 154.330,157.374 153.756,157.152 153.086 L 156.747 151.867 156.370 152.809 " stroke="none" fill="#54545c" fill-rule="evenodd"></path><path id="path2" d="M156.368 66.779 C 155.998 67.149,156.203 137.481,156.574 137.624 C 157.040 137.802,242.960 137.802,243.426 137.624 C 243.748 137.500,243.782 134.157,243.782 102.058 L 243.782 66.629 200.150 66.629 C 176.153 66.629,156.451 66.697,156.368 66.779 M243.501 102.138 L 243.444 137.423 200.000 137.423 L 156.556 137.423 156.499 102.138 L 156.442 66.854 200.000 66.854 L 243.558 66.854 243.501 102.138 M161.732 102.082 L 161.733 132.245 200.000 132.245 L 238.267 132.245 238.268 102.138 L 238.269 72.032 238.211 102.082 L 238.153 132.133 200.000 132.133 L 161.847 132.133 161.789 102.026 L 161.731 71.919 161.732 102.082 M224.254 77.589 C 224.471 77.646,224.826 77.646,225.042 77.589 C 225.259 77.532,225.082 77.486,224.648 77.486 C 224.215 77.486,224.038 77.532,224.254 77.589 M228.475 78.690 C 229.032 79.006,229.892 79.638,230.387 80.094 C 231.273 80.911,231.276 80.912,230.612 80.161 C 229.915 79.373,228.116 78.107,227.699 78.112 C 227.569 78.113,227.918 78.373,228.475 78.690 M218.402 80.304 C 217.710 81.194,217.210 81.998,217.597 81.598 C 218.047 81.134,219.279 79.460,219.171 79.460 C 219.109 79.460,218.763 79.840,218.402 80.304 M183.954 83.793 C 184.242 84.071,184.771 84.603,185.131 84.975 C 185.490 85.346,185.352 85.118,184.824 84.468 C 184.296 83.818,183.766 83.286,183.647 83.286 C 183.528 83.286,183.666 83.514,183.954 83.793 M232.414 85.635 C 232.414 86.919,232.489 87.852,232.580 87.710 C 232.785 87.388,232.775 84.214,232.567 83.688 C 232.483 83.475,232.414 84.351,232.414 85.635 M216.387 85.763 C 216.387 86.443,216.429 86.722,216.481 86.382 C 216.532 86.041,216.532 85.484,216.481 85.144 C 216.429 84.803,216.387 85.082,216.387 85.763 M182.580 85.562 C 182.441 85.960,182.367 86.325,182.415 86.373 C 182.463 86.421,182.616 86.135,182.755 85.738 C 182.894 85.340,182.968 84.975,182.920 84.927 C 182.871 84.879,182.719 85.165,182.580 85.562 M181.905 87.363 C 181.766 87.761,181.692 88.126,181.740 88.174 C 181.788 88.222,181.941 87.936,182.080 87.538 C 182.218 87.140,182.292 86.776,182.244 86.727 C 182.196 86.679,182.043 86.965,181.905 87.363 M188.538 89.364 C 189.122 90.107,189.757 90.841,189.951 90.996 C 190.144 91.151,189.712 90.543,188.992 89.645 C 188.271 88.748,187.635 88.014,187.579 88.014 C 187.523 88.014,187.955 88.621,188.538 89.364 M181.229 89.164 C 181.091 89.562,181.017 89.927,181.065 89.975 C 181.113 90.023,181.266 89.737,181.404 89.339 C 181.543 88.941,181.617 88.576,181.569 88.528 C 181.521 88.480,181.368 88.766,181.229 89.164 M231.714 89.420 C 231.508 89.823,231.040 90.557,230.675 91.052 L 230.010 91.953 230.722 91.165 C 231.405 90.410,232.432 88.689,232.199 88.689 C 232.138 88.689,231.920 89.018,231.714 89.420 M218.786 91.446 C 219.338 92.034,219.819 92.515,219.856 92.515 C 220.025 92.515,219.846 92.313,218.852 91.381 L 217.783 90.377 218.786 91.446 M190.881 92.287 C 191.272 92.781,191.709 93.257,191.853 93.346 C 191.997 93.435,191.724 93.031,191.247 92.449 C 190.769 91.866,190.332 91.390,190.275 91.390 C 190.217 91.390,190.490 91.794,190.881 92.287 M193.040 94.992 C 193.624 95.734,194.259 96.469,194.453 96.624 C 194.646 96.778,194.214 96.171,193.494 95.273 C 192.773 94.375,192.137 93.641,192.081 93.641 C 192.025 93.641,192.457 94.249,193.040 94.992 M195.383 97.915 C 195.774 98.408,196.211 98.885,196.355 98.973 C 196.499 99.062,196.226 98.658,195.749 98.076 C 195.271 97.494,194.834 97.017,194.777 97.017 C 194.719 97.017,194.992 97.421,195.383 97.915 M176.277 102.445 C 176.138 102.843,176.064 103.207,176.113 103.256 C 176.161 103.304,176.314 103.018,176.452 102.620 C 176.591 102.222,176.665 101.857,176.617 101.809 C 176.569 101.761,176.416 102.047,176.277 102.445 M215.960 102.455 C 215.860 102.618,215.899 102.653,216.066 102.550 C 216.219 102.455,216.526 102.607,216.789 102.909 L 217.247 103.433 216.870 102.814 C 216.463 102.145,216.213 102.046,215.960 102.455 M213.844 104.023 C 213.059 104.711,213.059 104.712,213.780 104.232 C 214.179 103.966,214.565 103.653,214.638 103.535 C 214.855 103.183,214.675 103.294,213.844 104.023 M175.615 104.209 C 175.483 104.587,175.423 104.896,175.482 104.896 C 175.634 104.896,176.058 103.727,175.947 103.615 C 175.896 103.564,175.746 103.831,175.615 104.209 M201.686 105.793 C 202.077 106.287,202.514 106.763,202.658 106.852 C 202.801 106.941,202.529 106.537,202.051 105.955 C 201.574 105.372,201.137 104.896,201.079 104.896 C 201.022 104.896,201.295 105.300,201.686 105.793 M174.939 106.010 C 174.808 106.388,174.748 106.697,174.806 106.697 C 174.958 106.697,175.383 105.527,175.271 105.416 C 175.220 105.365,175.071 105.632,174.939 106.010 M211.246 105.971 C 210.488 106.650,210.682 106.590,211.679 105.837 C 212.036 105.567,212.239 105.349,212.129 105.352 C 212.020 105.355,211.622 105.634,211.246 105.971 M209.342 107.399 C 208.557 108.087,208.557 108.088,209.279 107.608 C 209.677 107.343,210.063 107.029,210.136 106.911 C 210.353 106.560,210.173 106.671,209.342 107.399 M203.165 107.584 C 203.772 108.477,205.351 110.298,205.519 110.298 C 205.621 110.298,205.435 110.019,205.104 109.678 C 204.773 109.337,204.147 108.648,203.714 108.146 C 203.281 107.644,203.034 107.391,203.165 107.584 M171.100 116.176 C 170.961 116.574,170.887 116.939,170.935 116.987 C 170.983 117.035,171.136 116.749,171.275 116.351 C 171.414 115.953,171.488 115.588,171.440 115.540 C 171.391 115.492,171.239 115.778,171.100 116.176 M170.425 117.977 C 170.286 118.374,170.212 118.739,170.260 118.787 C 170.308 118.836,170.461 118.549,170.600 118.152 C 170.738 117.754,170.812 117.389,170.764 117.341 C 170.716 117.293,170.563 117.579,170.425 117.977 M231.937 125.653 C 232.138 125.989,232.302 126.319,232.302 126.385 C 232.302 126.451,217.718 126.505,199.895 126.505 C 169.132 126.505,167.494 126.485,167.614 126.111 C 167.717 125.790,167.698 125.778,167.509 126.044 C 167.382 126.224,167.328 126.452,167.389 126.551 C 167.589 126.875,232.527 126.773,232.522 126.449 C 232.519 126.294,232.304 125.914,232.045 125.605 L 231.573 125.042 231.937 125.653 M164.772 148.800 C 164.526 148.967,164.617 148.988,165.110 148.878 C 165.937 148.693,166.117 148.564,165.541 148.568 C 165.304 148.570,164.958 148.675,164.772 148.800 M166.817 148.646 C 166.868 148.690,167.214 148.795,167.586 148.878 C 168.079 148.988,168.170 148.967,167.923 148.800 C 167.620 148.595,166.591 148.451,166.817 148.646 M197.074 148.790 C 196.500 149.037,197.092 149.037,197.862 148.790 C 198.314 148.645,198.336 148.609,197.974 148.603 C 197.727 148.600,197.321 148.684,197.074 148.790 M199.231 148.646 C 199.282 148.690,199.629 148.795,200.000 148.878 C 200.493 148.988,200.584 148.967,200.338 148.800 C 200.034 148.595,199.005 148.451,199.231 148.646 M227.124 148.800 C 226.878 148.967,226.969 148.988,227.462 148.878 C 228.290 148.693,228.469 148.564,227.893 148.568 C 227.656 148.570,227.310 148.675,227.124 148.800 M229.600 148.790 C 230.370 149.037,230.962 149.037,230.388 148.790 C 230.141 148.684,229.736 148.600,229.488 148.603 C 229.126 148.609,229.148 148.645,229.600 148.790 M137.595 148.952 C 137.937 149.003,138.443 149.002,138.720 148.949 C 138.997 148.895,138.717 148.853,138.098 148.854 C 137.479 148.856,137.252 148.900,137.595 148.952 M141.062 148.940 C 140.854 149.148,140.872 158.244,141.080 158.244 C 141.173 158.245,141.220 156.159,141.184 153.610 L 141.119 148.976 142.591 149.052 C 143.401 149.094,144.064 149.052,144.063 148.959 C 144.063 148.750,141.269 148.733,141.062 148.940 M148.218 149.030 C 148.136 149.162,148.131 149.331,148.205 149.405 C 148.279 149.480,148.340 149.422,148.340 149.278 C 148.340 149.107,148.814 149.015,149.699 149.015 L 151.059 149.015 150.994 153.630 C 150.958 156.168,151.005 158.245,151.097 158.244 C 151.190 158.244,151.266 156.117,151.266 153.517 L 151.266 148.790 149.816 148.790 C 149.019 148.790,148.300 148.898,148.218 149.030 M156.601 148.956 C 157.537 149.021,157.800 149.129,157.916 149.494 C 157.995 149.744,158.110 149.900,158.170 149.839 C 158.624 149.385,157.703 148.793,156.604 148.832 L 155.431 148.873 156.601 148.956 M172.350 148.940 C 172.142 149.148,172.161 158.244,172.369 158.244 C 172.462 158.245,172.509 156.168,172.473 153.630 L 172.408 149.015 175.793 149.015 L 179.178 149.015 179.178 149.683 L 179.178 150.351 176.759 150.414 L 174.339 150.478 174.268 151.469 C 174.177 152.744,174.341 152.834,176.759 152.838 C 178.700 152.842,178.728 152.850,178.728 153.396 C 178.728 153.940,178.688 153.952,176.646 154.025 L 174.564 154.099 176.759 154.146 L 178.953 154.192 178.953 153.413 L 178.953 152.633 176.759 152.569 L 174.564 152.504 174.495 151.555 L 174.426 150.606 176.859 150.542 L 179.291 150.478 179.361 149.634 L 179.431 148.790 175.966 148.790 C 174.060 148.790,172.433 148.858,172.350 148.940 M184.681 149.078 C 184.621 149.236,184.601 151.389,184.637 153.861 L 184.703 158.357 184.755 153.686 L 184.806 149.015 185.687 149.015 C 186.381 149.015,186.672 149.147,187.055 149.634 C 187.322 149.975,187.467 150.101,187.377 149.916 C 186.865 148.859,184.989 148.276,184.681 149.078 M191.566 148.950 L 192.477 149.042 192.412 153.643 C 192.376 156.174,192.425 158.245,192.520 158.244 C 192.615 158.244,192.666 156.142,192.633 153.573 L 192.572 148.903 191.613 148.881 L 190.655 148.858 191.566 148.950 M204.026 149.115 C 203.957 149.293,203.949 149.622,204.007 149.846 C 204.076 150.113,204.121 150.039,204.138 149.634 L 204.164 149.015 207.878 149.015 L 211.593 149.015 211.593 149.679 C 211.593 150.330,211.566 150.345,210.298 150.411 L 209.004 150.478 208.995 154.136 L 208.987 157.794 209.057 154.193 L 209.128 150.591 210.473 150.591 L 211.818 150.591 211.818 149.690 L 211.818 148.790 207.984 148.790 C 204.853 148.790,204.127 148.850,204.026 149.115 M216.645 149.078 C 216.585 149.236,216.565 151.389,216.601 153.861 L 216.667 158.357 216.719 153.692 L 216.770 149.027 220.090 148.958 L 223.410 148.890 220.083 148.840 C 217.553 148.802,216.729 148.859,216.645 149.078 M234.819 152.606 C 234.871 155.379,234.971 156.502,235.186 156.714 C 235.430 156.955,235.439 156.895,235.242 156.373 C 235.110 156.024,235.003 154.232,235.003 152.390 L 235.003 149.041 235.959 148.955 L 236.916 148.869 235.832 148.829 L 234.748 148.790 234.819 152.606 M240.734 149.069 C 240.670 149.236,240.649 150.838,240.687 152.627 L 240.756 155.881 240.806 152.448 L 240.855 149.015 241.771 149.015 L 242.686 149.015 242.615 152.715 C 242.576 154.749,242.622 156.273,242.718 156.100 C 242.814 155.928,242.865 154.238,242.831 152.345 L 242.769 148.903 241.810 148.833 C 241.160 148.786,240.814 148.862,240.734 149.069 M244.733 153.573 L 244.785 158.357 244.851 153.698 L 244.916 149.039 245.981 148.955 L 247.046 148.871 245.864 148.831 L 244.682 148.790 244.733 153.573 M251.667 148.950 L 252.578 149.042 252.513 153.632 C 252.477 156.157,252.526 158.144,252.622 158.048 C 252.717 157.953,252.768 155.856,252.734 153.388 L 252.673 148.903 251.715 148.881 L 250.756 148.858 251.667 148.950 M255.890 148.957 C 256.668 149.001,257.884 149.001,258.591 148.956 C 259.298 148.912,258.661 148.876,257.175 148.876 C 255.689 148.876,255.111 148.913,255.890 148.957 M195.660 149.634 C 195.121 150.160,195.112 150.186,195.600 149.806 C 196.560 149.058,196.606 149.015,196.447 149.015 C 196.362 149.015,196.008 149.294,195.660 149.634 M230.951 149.104 C 230.951 149.162,231.280 149.440,231.683 149.723 C 232.202 150.087,232.321 150.120,232.095 149.838 C 231.773 149.437,230.951 148.910,230.951 149.104 M169.403 149.937 C 169.765 150.382,170.107 150.708,170.163 150.661 C 170.218 150.615,169.922 150.250,169.504 149.852 L 168.744 149.128 169.403 149.937 M201.799 149.916 C 202.866 151.163,202.881 151.177,202.637 150.703 C 202.509 150.456,202.117 150.000,201.765 149.691 L 201.125 149.129 201.799 149.916 M260.777 149.385 C 261.923 150.402,262.345 150.699,261.903 150.176 C 261.658 149.886,261.253 149.544,261.004 149.417 C 260.755 149.289,260.653 149.275,260.777 149.385 M158.373 150.591 C 158.456 150.900,158.618 151.306,158.732 151.491 C 158.877 151.726,158.895 151.657,158.790 151.266 C 158.708 150.957,158.546 150.551,158.431 150.366 C 158.286 150.131,158.269 150.200,158.373 150.591 M165.954 150.296 C 166.171 150.352,166.525 150.352,166.742 150.296 C 166.958 150.239,166.781 150.193,166.348 150.193 C 165.914 150.193,165.737 150.239,165.954 150.296 M198.368 150.296 C 198.585 150.352,198.939 150.352,199.156 150.296 C 199.373 150.239,199.195 150.193,198.762 150.193 C 198.329 150.193,198.151 150.239,198.368 150.296 M220.934 150.353 L 218.683 150.478 218.683 151.604 L 218.683 152.729 220.484 152.743 L 222.285 152.757 220.540 152.678 L 218.796 152.599 218.796 151.595 L 218.796 150.591 221.047 150.591 C 222.397 150.591,223.298 150.501,223.298 150.366 C 223.298 150.242,223.272 150.160,223.241 150.184 C 223.210 150.208,222.172 150.284,220.934 150.353 M228.306 150.296 C 228.523 150.352,228.877 150.352,229.094 150.296 C 229.311 150.239,229.133 150.193,228.700 150.193 C 228.267 150.193,228.089 150.239,228.306 150.296 M205.453 150.526 L 206.855 150.612 206.925 154.428 L 206.994 158.245 206.986 154.361 L 206.978 150.478 205.515 150.459 L 204.052 150.440 205.453 150.526 M256.524 150.722 C 256.449 150.918,256.408 152.260,256.433 153.704 L 256.478 156.331 256.602 153.517 L 256.725 150.703 257.738 150.568 L 258.751 150.433 257.706 150.400 C 256.938 150.375,256.624 150.460,256.524 150.722 M168.090 151.208 C 168.607 152.161,170.420 152.341,170.373 151.435 C 170.354 151.054,170.322 151.026,170.244 151.322 C 170.074 151.973,168.828 151.835,168.211 151.097 L 167.693 150.478 168.090 151.208 M262.275 150.929 C 262.275 151.052,262.411 151.508,262.577 151.941 C 262.744 152.375,262.884 152.577,262.888 152.392 C 262.892 152.206,262.756 151.750,262.586 151.379 C 262.415 151.007,262.276 150.805,262.275 150.929 M231.064 153.517 C 231.064 154.484,231.138 155.158,231.229 155.015 C 231.320 154.872,231.394 154.198,231.394 153.517 C 231.394 152.836,231.320 152.162,231.229 152.019 C 231.138 151.876,231.064 152.550,231.064 153.517 M233.089 153.644 C 233.089 154.680,233.158 155.354,233.242 155.141 C 233.451 154.616,233.460 152.341,233.255 152.020 C 233.164 151.878,233.089 152.609,233.089 153.644 M226.136 152.298 C 225.946 152.791,225.970 154.474,226.171 154.790 C 226.262 154.933,226.337 154.350,226.337 153.496 C 226.337 151.796,226.334 151.780,226.136 152.298 M246.593 152.203 C 246.525 152.382,246.500 153.790,246.539 155.330 L 246.611 158.132 246.659 155.234 C 246.705 152.510,246.732 152.355,247.102 152.645 C 247.466 152.931,247.471 152.921,247.166 152.504 C 246.984 152.257,246.809 152.014,246.777 151.966 C 246.745 151.917,246.662 152.024,246.593 152.203 M186.430 155.149 L 186.479 158.132 186.550 155.240 C 186.616 152.543,186.647 152.368,187.007 152.651 C 187.357 152.925,187.364 152.916,187.086 152.560 C 186.484 151.794,186.382 152.199,186.430 155.149 M188.829 152.504 C 188.950 152.752,189.215 153.157,189.416 153.405 L 189.783 153.855 189.562 153.405 C 189.440 153.157,189.176 152.752,188.974 152.504 L 188.608 152.054 188.829 152.504 M194.064 153.517 C 194.052 154.322,194.123 155.108,194.222 155.264 C 194.321 155.419,194.364 154.913,194.318 154.138 C 194.196 152.096,194.090 151.837,194.064 153.517 M224.034 153.517 C 224.034 154.074,224.078 154.302,224.132 154.024 C 224.186 153.745,224.186 153.289,224.132 153.011 C 224.078 152.732,224.034 152.960,224.034 153.517 M201.271 153.405 C 201.249 153.776,201.180 154.333,201.116 154.643 L 201.000 155.205 201.242 154.651 C 201.375 154.345,201.445 153.788,201.397 153.412 L 201.310 152.729 201.271 153.405 M149.326 155.656 C 149.327 157.141,149.363 157.720,149.407 156.941 C 149.451 156.162,149.451 154.947,149.406 154.240 C 149.362 153.533,149.326 154.170,149.326 155.656 M166.731 153.209 C 166.509 153.431,166.533 154.643,166.759 154.643 C 166.861 154.643,166.901 154.339,166.846 153.967 L 166.747 153.292 168.566 153.292 L 170.385 153.292 170.460 155.712 L 170.534 158.132 170.523 155.656 L 170.512 153.180 168.701 153.115 C 167.705 153.079,166.818 153.122,166.731 153.209 M157.647 154.045 C 157.666 154.374,157.757 154.642,157.850 154.642 C 158.079 154.643,158.058 154.152,157.812 153.764 C 157.669 153.538,157.622 153.618,157.647 154.045 M145.653 154.204 C 145.638 154.571,146.053 155.093,146.359 155.093 C 146.458 155.093,146.539 154.986,146.539 154.854 C 146.539 154.723,146.437 154.679,146.312 154.756 C 146.187 154.834,145.991 154.662,145.876 154.376 C 145.752 154.066,145.661 153.996,145.653 154.204 M196.061 154.517 C 196.061 154.819,196.144 155.118,196.245 155.180 C 196.347 155.243,196.386 154.996,196.332 154.631 C 196.214 153.826,196.061 153.762,196.061 154.517 M220.597 154.178 L 218.683 154.305 218.571 156.275 C 218.509 157.359,218.534 158.245,218.627 158.245 C 218.720 158.244,218.796 157.383,218.796 156.331 L 218.796 154.418 220.709 154.418 C 221.835 154.418,222.622 154.325,222.622 154.192 C 222.622 154.069,222.597 153.986,222.566 154.009 C 222.535 154.032,221.649 154.108,220.597 154.178 M174.317 155.318 L 174.339 156.556 176.872 156.568 L 179.404 156.579 176.939 156.504 L 174.474 156.429 174.385 155.254 L 174.296 154.080 174.317 155.318 M188.203 154.651 C 188.400 154.956,188.992 155.889,189.518 156.725 C 190.043 157.560,190.527 158.244,190.592 158.244 C 190.657 158.244,190.527 157.966,190.304 157.625 C 190.081 157.285,189.549 156.422,189.124 155.707 C 188.698 154.993,188.236 154.338,188.097 154.253 C 187.958 154.167,188.006 154.347,188.203 154.651 M144.192 155.093 C 144.275 155.402,144.436 155.808,144.551 155.993 C 144.696 156.228,144.714 156.159,144.609 155.768 C 144.527 155.459,144.365 155.053,144.250 154.868 C 144.105 154.633,144.087 154.702,144.192 155.093 M260.067 155.744 C 259.659 156.239,259.341 156.352,258.041 156.464 L 256.500 156.598 257.903 156.633 C 259.211 156.666,261.160 155.694,260.664 155.256 C 260.602 155.201,260.334 155.421,260.067 155.744 M164.277 155.674 C 164.534 156.164,165.193 156.797,165.288 156.644 C 165.319 156.596,165.048 156.252,164.687 155.881 C 164.241 155.422,164.110 155.356,164.277 155.674 M226.449 155.518 C 226.449 155.732,227.549 156.780,227.637 156.651 C 227.672 156.599,227.419 156.284,227.075 155.951 C 226.731 155.619,226.449 155.424,226.449 155.518 M236.810 155.437 C 236.800 155.794,237.474 156.669,237.760 156.669 C 237.900 156.669,237.856 156.542,237.662 156.387 C 237.468 156.232,237.199 155.903,237.064 155.656 C 236.928 155.408,236.814 155.309,236.810 155.437 M248.930 155.656 C 249.052 155.903,249.316 156.308,249.518 156.556 L 249.884 157.006 249.663 156.556 C 249.542 156.308,249.277 155.903,249.076 155.656 L 248.709 155.205 248.930 155.656 M230.207 156.113 C 229.860 156.419,229.665 156.669,229.774 156.669 C 229.883 156.669,230.210 156.415,230.501 156.106 C 231.174 155.390,231.025 155.393,230.207 156.113 M154.631 156.587 C 154.507 156.914,154.454 157.230,154.513 157.289 C 154.572 157.348,154.689 157.125,154.773 156.792 C 154.924 156.188,154.929 156.187,156.789 156.259 C 157.814 156.298,158.606 156.255,158.548 156.162 C 158.216 155.630,154.856 155.994,154.631 156.587 M163.245 157.234 C 163.705 157.715,164.118 158.064,164.163 158.008 C 164.207 157.952,163.831 157.558,163.326 157.133 L 162.409 156.359 163.245 157.234 M195.272 157.093 C 195.520 157.380,196.026 157.758,196.398 157.933 C 196.797 158.120,196.900 158.134,196.650 157.966 C 196.416 157.810,195.910 157.432,195.524 157.127 C 194.847 156.591,194.838 156.590,195.272 157.093 M198.368 156.824 C 198.585 156.880,198.939 156.880,199.156 156.824 C 199.373 156.767,199.195 156.721,198.762 156.721 C 198.329 156.721,198.151 156.767,198.368 156.824 M228.306 156.824 C 228.523 156.880,228.877 156.880,229.094 156.824 C 229.311 156.767,229.133 156.721,228.700 156.721 C 228.267 156.721,228.089 156.767,228.306 156.824 M238.436 156.824 C 238.652 156.880,239.007 156.880,239.223 156.824 C 239.440 156.767,239.263 156.721,238.829 156.721 C 238.396 156.721,238.219 156.767,238.436 156.824 M241.653 157.387 C 241.128 157.938,241.091 158.029,241.479 157.822 C 241.749 157.677,242.078 157.358,242.209 157.114 C 242.526 156.520,242.441 156.562,241.653 157.387 M168.345 157.738 C 168.064 158.096,168.072 158.103,168.437 157.817 C 168.787 157.542,168.881 157.556,169.181 157.929 C 169.506 158.335,169.511 158.331,169.279 157.850 C 168.983 157.241,168.756 157.214,168.345 157.738 M165.729 158.405 C 166.069 158.457,166.626 158.457,166.967 158.405 C 167.307 158.354,167.029 158.312,166.348 158.312 C 165.667 158.312,165.388 158.354,165.729 158.405 M198.034 158.407 C 198.439 158.457,199.047 158.456,199.385 158.405 C 199.723 158.354,199.392 158.313,198.649 158.314 C 197.907 158.315,197.630 158.357,198.034 158.407 M228.198 158.407 C 228.602 158.457,229.210 158.456,229.548 158.405 C 229.886 158.354,229.555 158.313,228.813 158.314 C 228.070 158.315,227.793 158.357,228.198 158.407 M238.098 158.407 C 238.500 158.457,239.159 158.457,239.561 158.407 C 239.963 158.357,239.634 158.316,238.829 158.316 C 238.025 158.316,237.696 158.357,238.098 158.407 " stroke="none" fill="#acacac" fill-rule="evenodd"></path><path id="path3" d="M156.366 66.573 C 156.271 66.725,185.972 66.725,227.912 66.571 C 236.579 66.539,224.049 66.489,200.070 66.459 C 176.090 66.429,156.423 66.480,156.366 66.573 M183.380 83.211 C 183.298 83.294,183.232 83.471,183.234 83.605 C 183.236 83.739,183.329 83.704,183.442 83.526 C 183.619 83.245,183.700 83.245,184.057 83.526 C 184.433 83.822,184.442 83.816,184.159 83.455 C 183.830 83.035,183.622 82.970,183.380 83.211 M224.029 94.027 C 224.370 94.079,224.927 94.079,225.267 94.027 C 225.608 93.976,225.329 93.934,224.648 93.934 C 223.967 93.934,223.689 93.976,224.029 94.027 M137.707 148.724 C 137.987 148.778,138.392 148.776,138.607 148.720 C 138.822 148.663,138.593 148.619,138.098 148.622 C 137.603 148.624,137.427 148.670,137.707 148.724 M141.868 148.726 C 142.209 148.778,142.766 148.778,143.106 148.726 C 143.447 148.675,143.168 148.632,142.487 148.632 C 141.806 148.632,141.528 148.675,141.868 148.726 M149.188 148.728 C 149.593 148.778,150.200 148.777,150.539 148.726 C 150.877 148.674,150.546 148.633,149.803 148.635 C 149.060 148.636,148.783 148.678,149.188 148.728 M156.390 148.724 C 156.670 148.778,157.075 148.776,157.290 148.720 C 157.505 148.663,157.276 148.619,156.781 148.622 C 156.286 148.624,156.110 148.670,156.390 148.724 M174.170 148.732 C 175.068 148.775,176.536 148.775,177.434 148.732 C 178.331 148.689,177.597 148.654,175.802 148.654 C 174.007 148.654,173.272 148.689,174.170 148.732 M184.552 148.959 C 184.283 149.302,184.287 149.319,184.582 149.090 C 184.768 148.945,185.274 148.784,185.707 148.732 L 186.494 148.637 185.678 148.601 C 185.135 148.577,184.757 148.697,184.552 148.959 M191.165 148.720 C 191.382 148.777,191.736 148.777,191.953 148.720 C 192.169 148.664,191.992 148.617,191.559 148.617 C 191.125 148.617,190.948 148.664,191.165 148.720 M206.134 148.732 C 207.155 148.774,208.827 148.774,209.848 148.732 C 210.869 148.691,210.034 148.657,207.991 148.657 C 205.948 148.657,205.113 148.691,206.134 148.732 M216.691 148.734 C 216.634 148.827,217.565 148.876,218.760 148.843 C 222.771 148.733,223.209 148.649,219.991 148.607 C 218.234 148.584,216.749 148.641,216.691 148.734 M235.397 148.724 C 235.675 148.778,236.131 148.778,236.410 148.724 C 236.688 148.670,236.460 148.626,235.903 148.626 C 235.346 148.626,235.118 148.670,235.397 148.724 M241.080 148.654 C 241.080 148.703,241.477 148.781,241.962 148.827 C 242.447 148.873,242.795 148.833,242.736 148.738 C 242.630 148.565,241.080 148.486,241.080 148.654 M245.304 148.724 C 245.584 148.778,245.989 148.776,246.204 148.720 C 246.419 148.663,246.190 148.619,245.695 148.622 C 245.200 148.624,245.024 148.670,245.304 148.724 M251.266 148.720 C 251.483 148.777,251.837 148.777,252.054 148.720 C 252.271 148.664,252.093 148.617,251.660 148.617 C 251.227 148.617,251.050 148.664,251.266 148.720 M255.888 148.731 C 256.542 148.777,257.555 148.776,258.139 148.730 C 258.723 148.684,258.188 148.647,256.950 148.647 C 255.712 148.648,255.234 148.686,255.888 148.731 M139.206 153.517 C 139.206 156.055,139.239 157.093,139.279 155.824 C 139.319 154.555,139.319 152.479,139.279 151.210 C 139.239 149.941,139.206 150.979,139.206 153.517 M190.390 151.829 C 190.352 153.377,190.397 154.643,190.490 154.643 C 190.582 154.643,190.658 153.376,190.658 151.829 C 190.658 148.190,190.479 148.190,190.390 151.829 M236.893 152.167 C 236.893 153.962,236.928 154.696,236.971 153.799 C 237.013 152.901,237.013 151.432,236.971 150.535 C 236.928 149.637,236.893 150.371,236.893 152.167 M244.552 153.630 C 244.552 156.230,244.585 157.262,244.625 155.925 C 244.665 154.587,244.665 152.460,244.625 151.198 C 244.585 149.935,244.552 151.030,244.552 153.630 M254.456 153.517 C 254.456 156.055,254.489 157.093,254.529 155.824 C 254.569 154.555,254.569 152.479,254.529 151.210 C 254.489 149.941,254.456 150.979,254.456 153.517 M256.674 152.167 C 256.674 152.724,256.717 152.952,256.771 152.673 C 256.825 152.394,256.825 151.939,256.771 151.660 C 256.717 151.382,256.674 151.609,256.674 152.167 M175.633 152.557 C 176.221 152.603,177.183 152.603,177.772 152.557 C 178.360 152.511,177.878 152.473,176.702 152.473 C 175.526 152.473,175.045 152.511,175.633 152.557 M161.685 153.630 C 161.687 154.249,161.730 154.475,161.782 154.133 C 161.834 153.791,161.833 153.284,161.779 153.008 C 161.726 152.731,161.683 153.011,161.685 153.630 M260.721 153.630 C 260.723 154.125,260.769 154.301,260.823 154.021 C 260.877 153.741,260.875 153.336,260.819 153.121 C 260.762 152.905,260.718 153.134,260.721 153.630 M256.669 154.080 C 256.672 154.575,256.718 154.751,256.771 154.471 C 256.825 154.191,256.823 153.786,256.767 153.571 C 256.711 153.356,256.667 153.585,256.669 154.080 M156.390 154.577 C 156.670 154.631,157.075 154.629,157.290 154.572 C 157.505 154.516,157.276 154.472,156.781 154.474 C 156.286 154.477,156.110 154.523,156.390 154.577 M167.079 154.798 C 167.296 154.854,167.651 154.854,167.867 154.798 C 168.084 154.741,167.907 154.695,167.473 154.695 C 167.040 154.695,166.863 154.741,167.079 154.798 M179.460 157.456 C 179.463 157.952,179.509 158.128,179.563 157.848 C 179.617 157.568,179.614 157.163,179.558 156.947 C 179.502 156.732,179.458 156.961,179.460 157.456 M144.970 157.710 C 144.958 158.158,145.593 158.505,146.244 158.407 C 146.859 158.314,146.856 158.311,146.156 158.278 C 145.735 158.258,145.341 158.081,145.207 157.850 C 145.080 157.634,144.974 157.571,144.970 157.710 M185.594 158.244 L 184.693 158.405 185.524 158.437 C 185.981 158.455,186.418 158.368,186.494 158.244 C 186.571 158.120,186.602 158.034,186.564 158.051 C 186.525 158.069,186.089 158.156,185.594 158.244 M245.695 158.244 L 244.795 158.405 245.625 158.437 C 246.082 158.455,246.519 158.368,246.595 158.244 C 246.672 158.120,246.703 158.034,246.665 158.051 C 246.627 158.069,246.190 158.156,245.695 158.244 M137.707 158.403 C 137.987 158.457,138.392 158.455,138.607 158.399 C 138.822 158.343,138.593 158.298,138.098 158.301 C 137.603 158.303,137.427 158.350,137.707 158.403 M141.758 158.403 C 142.038 158.457,142.444 158.455,142.659 158.399 C 142.874 158.343,142.645 158.298,142.150 158.301 C 141.654 158.303,141.478 158.350,141.758 158.403 M149.862 158.403 C 150.142 158.457,150.547 158.455,150.762 158.399 C 150.978 158.343,150.748 158.298,150.253 158.301 C 149.758 158.303,149.582 158.350,149.862 158.403 M152.788 158.403 C 153.068 158.457,153.473 158.455,153.689 158.399 C 153.904 158.343,153.675 158.298,153.180 158.301 C 152.684 158.303,152.508 158.350,152.788 158.403 M159.766 158.403 C 160.046 158.457,160.451 158.455,160.667 158.399 C 160.882 158.343,160.653 158.298,160.158 158.301 C 159.662 158.303,159.486 158.350,159.766 158.403 M174.293 158.412 C 175.258 158.454,176.777 158.454,177.669 158.411 C 178.561 158.369,177.772 158.334,175.914 158.334 C 174.057 158.335,173.328 158.369,174.293 158.412 M191.055 158.403 C 191.335 158.457,191.740 158.455,191.955 158.399 C 192.171 158.343,191.941 158.298,191.446 158.301 C 190.951 158.303,190.775 158.350,191.055 158.403 M207.487 158.403 C 207.767 158.457,208.172 158.455,208.388 158.399 C 208.603 158.343,208.374 158.298,207.878 158.301 C 207.383 158.303,207.207 158.350,207.487 158.403 M217.166 158.403 C 217.446 158.457,217.852 158.455,218.067 158.399 C 218.282 158.343,218.053 158.298,217.558 158.301 C 217.062 158.303,216.886 158.350,217.166 158.403 M251.156 158.403 C 251.436 158.457,251.841 158.455,252.057 158.399 C 252.272 158.343,252.043 158.298,251.548 158.301 C 251.052 158.303,250.876 158.350,251.156 158.403 M255.888 158.410 C 256.542 158.456,257.555 158.456,258.139 158.409 C 258.723 158.363,258.188 158.326,256.950 158.326 C 255.712 158.327,255.234 158.365,255.888 158.410 M228.306 158.624 C 228.523 158.681,228.877 158.681,229.094 158.624 C 229.311 158.568,229.133 158.522,228.700 158.522 C 228.267 158.522,228.089 158.568,228.306 158.624 M238.436 158.624 C 238.652 158.681,239.007 158.681,239.223 158.624 C 239.440 158.568,239.263 158.522,238.829 158.522 C 238.396 158.522,238.219 158.568,238.436 158.624 " stroke="none" fill="#949495" fill-rule="evenodd"></path><path id="path4" d="M156.143 66.554 C 155.935 66.763,155.954 137.484,156.162 137.613 C 156.255 137.670,156.331 121.672,156.331 102.061 C 156.331 82.450,156.322 66.404,156.312 66.404 C 156.302 66.404,156.226 66.472,156.143 66.554 M243.669 102.047 L 243.669 137.648 200.113 137.761 L 156.556 137.875 200.011 137.930 C 233.572 137.973,243.528 137.924,243.737 137.715 C 244.044 137.408,244.144 66.741,243.838 66.551 C 243.745 66.494,243.669 82.467,243.669 102.047 M162.126 72.218 C 161.902 72.360,161.856 78.508,161.901 102.209 L 161.958 132.020 200.000 132.020 L 238.042 132.020 238.043 102.082 L 238.044 72.144 237.986 102.026 L 237.927 131.908 199.998 131.908 L 162.069 131.908 162.126 102.138 L 162.183 72.369 200.000 72.256 L 237.817 72.142 200.113 72.090 C 179.375 72.062,162.282 72.119,162.126 72.218 M224.254 77.364 C 224.471 77.421,224.826 77.421,225.042 77.364 C 225.259 77.307,225.082 77.261,224.648 77.261 C 224.215 77.261,224.038 77.307,224.254 77.364 M228.945 78.616 C 228.997 78.647,229.394 78.976,229.827 79.347 L 230.613 80.023 229.952 79.291 C 229.589 78.889,229.192 78.559,229.071 78.559 C 228.949 78.559,228.893 78.585,228.945 78.616 M217.438 81.160 C 217.166 81.600,216.982 81.998,217.029 82.045 C 217.076 82.092,217.344 81.732,217.624 81.245 C 218.259 80.142,218.109 80.073,217.438 81.160 M232.822 85.650 C 232.823 86.393,232.865 86.670,232.915 86.265 C 232.965 85.860,232.964 85.253,232.913 84.914 C 232.861 84.576,232.820 84.907,232.822 85.650 M180.329 90.965 C 180.190 91.363,180.116 91.727,180.164 91.776 C 180.212 91.824,180.365 91.538,180.504 91.140 C 180.643 90.742,180.717 90.377,180.669 90.329 C 180.620 90.281,180.468 90.567,180.329 90.965 M230.489 91.559 L 229.713 92.403 230.557 91.627 C 231.021 91.201,231.401 90.821,231.401 90.783 C 231.401 90.611,231.211 90.773,230.489 91.559 M179.654 92.766 C 179.515 93.163,179.441 93.528,179.489 93.576 C 179.537 93.625,179.690 93.338,179.829 92.941 C 179.967 92.543,180.041 92.178,179.993 92.130 C 179.945 92.082,179.792 92.368,179.654 92.766 M222.397 93.856 C 222.583 93.981,222.929 94.086,223.166 94.088 C 223.742 94.092,223.563 93.963,222.735 93.778 C 222.242 93.668,222.151 93.689,222.397 93.856 M192.906 94.430 C 193.802 95.510,193.878 95.580,193.633 95.102 C 193.506 94.853,193.164 94.448,192.874 94.203 C 192.365 93.772,192.366 93.780,192.906 94.430 M175.790 103.014 C 175.666 103.340,175.606 103.650,175.657 103.701 C 175.708 103.752,175.858 103.484,175.989 103.107 C 176.282 102.267,176.105 102.185,175.790 103.014 M210.421 106.200 C 209.467 106.907,208.682 107.560,208.676 107.652 C 208.671 107.745,209.477 107.201,210.467 106.444 C 212.012 105.264,212.471 104.859,212.212 104.906 C 212.181 104.912,211.375 105.494,210.421 106.200 M207.541 108.385 C 207.121 108.694,206.874 108.947,206.991 108.947 C 207.219 108.945,208.638 107.844,208.429 107.830 C 208.360 107.826,207.960 108.075,207.541 108.385 M221.468 109.510 C 221.590 109.758,221.854 110.163,222.056 110.411 L 222.422 110.861 222.201 110.411 C 222.080 110.163,221.815 109.758,221.614 109.510 L 221.247 109.060 221.468 109.510 M167.461 125.299 C 167.337 125.625,167.277 125.934,167.328 125.985 C 167.379 126.036,167.529 125.769,167.661 125.391 C 167.953 124.552,167.777 124.469,167.461 125.299 M183.642 126.899 C 192.720 126.932,207.509 126.932,216.506 126.899 C 225.503 126.867,218.075 126.840,200.000 126.840 C 181.925 126.840,174.563 126.867,183.642 126.899 M165.616 148.503 C 166.019 148.553,166.677 148.553,167.079 148.503 C 167.482 148.453,167.153 148.412,166.348 148.412 C 165.543 148.412,165.214 148.453,165.616 148.503 M198.030 148.503 C 198.433 148.553,199.091 148.553,199.494 148.503 C 199.896 148.453,199.567 148.412,198.762 148.412 C 197.957 148.412,197.628 148.453,198.030 148.503 M227.968 148.503 C 228.371 148.553,229.029 148.553,229.432 148.503 C 229.834 148.453,229.505 148.412,228.700 148.412 C 227.895 148.412,227.566 148.453,227.968 148.503 M137.010 148.715 C 136.802 148.923,136.820 158.193,137.029 158.322 C 137.122 158.379,137.198 156.208,137.198 153.496 C 137.198 150.784,137.189 148.565,137.179 148.565 C 137.168 148.565,137.092 148.633,137.010 148.715 M139.066 148.835 C 139.254 149.023,139.351 150.444,139.387 153.506 L 139.438 157.907 139.507 153.742 C 139.579 149.407,139.507 148.565,139.062 148.565 C 138.860 148.565,138.861 148.630,139.066 148.835 M143.934 148.919 C 144.129 149.113,144.288 149.383,144.288 149.519 C 144.288 149.655,144.347 149.707,144.419 149.635 C 144.601 149.453,144.099 148.565,143.814 148.565 C 143.686 148.565,143.740 148.724,143.934 148.919 M151.154 153.517 C 151.154 156.217,151.230 158.379,151.322 158.322 C 151.415 158.265,151.491 156.102,151.491 153.517 C 151.491 150.932,151.415 148.770,151.322 148.712 C 151.230 148.655,151.154 150.817,151.154 153.517 M155.308 149.034 C 155.169 149.293,155.115 149.563,155.187 149.635 C 155.259 149.707,155.318 149.655,155.318 149.519 C 155.318 149.383,155.477 149.113,155.672 148.919 C 155.866 148.724,155.920 148.565,155.792 148.565 C 155.664 148.565,155.446 148.776,155.308 149.034 M172.076 148.852 C 171.812 149.540,172.088 158.320,172.375 158.378 C 172.533 158.409,172.558 158.384,172.431 158.321 C 172.071 158.143,172.120 148.860,172.482 148.714 C 172.702 148.625,172.701 148.597,172.475 148.583 C 172.316 148.573,172.137 148.694,172.076 148.852 M186.607 148.821 C 186.792 148.990,187.090 149.280,187.268 149.465 C 187.519 149.727,187.515 149.679,187.249 149.253 C 187.060 148.950,186.762 148.660,186.587 148.608 C 186.331 148.532,186.335 148.573,186.607 148.821 M192.454 148.713 C 192.600 148.786,192.684 150.539,192.684 153.517 C 192.684 156.495,192.600 158.248,192.454 158.321 C 192.327 158.384,192.352 158.409,192.510 158.377 C 192.732 158.332,192.797 157.229,192.797 153.517 C 192.797 149.806,192.732 148.702,192.510 148.657 C 192.352 148.625,192.327 148.650,192.454 148.713 M203.804 148.881 C 203.737 149.055,203.715 149.536,203.755 149.950 L 203.827 150.703 205.234 150.770 L 206.640 150.837 206.640 154.528 C 206.640 156.557,206.716 158.265,206.809 158.323 C 206.902 158.380,206.927 156.689,206.866 154.565 L 206.753 150.703 205.346 150.636 L 203.939 150.569 203.939 149.699 C 203.939 149.212,204.064 148.777,204.221 148.714 C 204.441 148.625,204.439 148.597,204.214 148.583 C 204.055 148.573,203.870 148.707,203.804 148.881 M211.782 149.577 L 211.861 150.568 210.433 150.655 L 209.004 150.741 210.467 150.722 L 211.930 150.703 212.002 149.830 C 212.041 149.349,211.990 148.873,211.889 148.771 C 211.787 148.669,211.739 149.032,211.782 149.577 M216.470 148.715 C 216.262 148.923,216.280 158.193,216.488 158.322 C 216.581 158.379,216.657 156.208,216.657 153.496 C 216.657 150.784,216.649 148.565,216.639 148.565 C 216.628 148.565,216.552 148.633,216.470 148.715 M223.263 149.580 L 223.342 150.574 221.125 150.639 L 218.908 150.703 218.884 151.716 L 218.859 152.729 218.952 151.781 L 219.046 150.832 221.228 150.768 L 223.410 150.703 223.482 149.830 C 223.521 149.349,223.470 148.873,223.369 148.771 C 223.267 148.669,223.219 149.033,223.263 149.580 M234.652 148.856 C 234.590 149.016,234.569 150.662,234.603 152.514 L 234.667 155.881 234.779 152.223 C 234.888 148.626,234.875 148.274,234.652 148.856 M242.881 152.121 L 242.992 155.656 243.056 152.297 C 243.090 150.449,243.040 148.859,242.944 148.762 C 242.847 148.665,242.819 150.177,242.881 152.121 M250.685 148.715 C 250.602 148.798,250.535 150.005,250.535 151.397 C 250.535 153.052,250.448 153.959,250.285 154.013 C 250.126 154.066,250.163 154.203,250.385 154.387 C 250.698 154.647,250.742 154.355,250.804 151.621 C 250.841 149.940,250.864 148.564,250.853 148.565 C 250.843 148.565,250.767 148.633,250.685 148.715 M252.555 148.713 C 252.701 148.786,252.786 150.539,252.786 153.517 C 252.786 156.495,252.701 158.248,252.555 158.321 C 252.428 158.384,252.453 158.409,252.611 158.377 C 252.833 158.332,252.898 157.229,252.898 153.517 C 252.898 149.806,252.833 148.702,252.611 148.657 C 252.453 148.625,252.428 148.650,252.555 148.713 M254.273 148.921 C 253.826 150.086,254.162 158.469,254.655 158.469 C 254.820 158.469,254.812 158.380,254.631 158.199 C 254.440 158.007,254.361 156.649,254.361 153.517 C 254.361 150.386,254.440 149.027,254.631 148.835 C 254.812 148.654,254.820 148.565,254.655 148.565 C 254.520 148.565,254.348 148.725,254.273 148.921 M201.013 149.026 C 201.794 149.556,202.238 149.710,201.688 149.260 C 201.379 149.007,201.024 148.799,200.900 148.799 C 200.777 148.798,200.827 148.900,201.013 149.026 M140.792 153.611 C 140.798 157.601,140.851 158.334,141.137 158.412 C 141.382 158.478,141.398 158.450,141.198 158.307 C 140.999 158.166,140.902 156.824,140.853 153.507 L 140.785 148.903 140.792 153.611 M195.259 149.747 L 194.598 150.478 195.329 149.817 C 195.732 149.454,196.061 149.124,196.061 149.086 C 196.061 148.912,195.875 149.065,195.259 149.747 M247.938 150.535 C 248.285 151.061,248.611 151.491,248.664 151.491 C 248.826 151.491,247.964 150.121,247.626 149.842 C 247.451 149.697,247.591 150.008,247.938 150.535 M179.403 150.321 C 179.403 150.491,178.598 150.597,176.984 150.640 L 174.564 150.703 174.544 151.491 C 174.524 152.276,174.524 152.276,174.614 151.548 L 174.704 150.816 177.040 150.816 C 179.172 150.816,179.960 150.622,179.539 150.201 C 179.464 150.126,179.403 150.180,179.403 150.321 M165.322 150.716 C 164.907 151.048,164.912 151.053,165.422 150.804 C 165.718 150.660,166.325 150.601,166.773 150.673 C 167.335 150.763,167.482 150.737,167.248 150.588 C 166.737 150.262,165.811 150.324,165.322 150.716 M197.693 150.598 C 196.895 150.918,197.102 151.025,197.991 150.752 C 198.585 150.570,198.983 150.573,199.510 150.766 C 200.159 151.003,200.185 150.997,199.788 150.697 C 199.302 150.329,198.461 150.289,197.693 150.598 M227.877 150.538 C 227.734 150.629,228.105 150.703,228.700 150.703 C 229.295 150.703,229.666 150.629,229.523 150.538 C 229.380 150.447,229.010 150.373,228.700 150.373 C 228.391 150.373,228.020 150.447,227.877 150.538 M170.354 151.283 L 170.458 151.989 169.314 151.909 C 168.685 151.865,168.253 151.911,168.354 152.012 C 168.795 152.452,170.509 152.076,170.587 151.522 C 170.629 151.229,170.570 150.896,170.457 150.783 C 170.332 150.658,170.291 150.855,170.354 151.283 M256.762 150.741 C 256.680 150.823,256.614 151.001,256.616 151.135 C 256.618 151.292,256.679 151.285,256.787 151.114 C 256.880 150.969,257.360 150.808,257.853 150.758 L 258.751 150.667 257.832 150.629 C 257.326 150.608,256.845 150.658,256.762 150.741 M161.761 151.613 C 161.684 151.814,161.629 152.147,161.640 152.354 C 161.651 152.560,161.749 152.431,161.858 152.065 C 162.070 151.355,161.995 151.003,161.761 151.613 M262.959 153.330 C 262.935 154.155,262.857 155.016,262.785 155.243 C 262.665 155.627,262.673 155.628,262.908 155.263 C 263.054 155.036,263.128 154.230,263.082 153.350 L 263.003 151.829 262.959 153.330 M163.972 152.942 C 163.892 153.369,163.914 153.982,164.021 154.304 C 164.175 154.765,164.217 154.598,164.217 153.528 C 164.217 151.963,164.174 151.862,163.972 152.942 M246.708 152.590 C 246.708 152.746,246.860 153.026,247.046 153.212 C 247.477 153.643,247.472 153.316,247.038 152.743 C 246.853 152.497,246.708 152.430,246.708 152.590 M148.845 153.144 C 148.689 153.489,148.664 153.708,148.788 153.631 C 148.935 153.540,149.015 154.324,149.015 155.854 C 149.015 157.154,149.091 158.265,149.184 158.323 C 149.334 158.416,149.332 156.461,149.180 153.523 C 149.128 152.521,149.127 152.519,148.845 153.144 M193.871 153.517 C 193.871 154.074,193.915 154.302,193.969 154.024 C 194.022 153.745,194.022 153.289,193.969 153.011 C 193.915 152.732,193.871 152.960,193.871 153.517 M226.285 153.517 C 226.285 154.074,226.329 154.302,226.383 154.024 C 226.436 153.745,226.436 153.289,226.383 153.011 C 226.329 152.732,226.285 152.960,226.285 153.517 M233.492 153.630 C 233.493 154.249,233.537 154.475,233.589 154.133 C 233.640 153.791,233.639 153.284,233.586 153.008 C 233.532 152.731,233.490 153.011,233.492 153.630 M143.091 152.989 C 143.007 153.073,142.959 154.315,142.985 155.749 L 143.033 158.357 143.106 155.928 C 143.150 154.442,143.262 153.552,143.395 153.634 C 143.658 153.797,143.674 153.512,143.425 153.120 C 143.326 152.963,143.175 152.904,143.091 152.989 M167.642 153.007 C 168.168 153.054,169.029 153.054,169.555 153.007 C 170.082 152.959,169.651 152.921,168.599 152.921 C 167.546 152.921,167.116 152.959,167.642 153.007 M186.606 155.589 C 186.544 157.162,186.573 158.369,186.670 158.271 C 186.767 158.174,186.818 156.887,186.782 155.412 L 186.717 152.729 186.606 155.589 M170.624 155.701 C 170.562 157.212,170.592 158.369,170.689 158.271 C 170.786 158.174,170.836 156.937,170.800 155.524 L 170.735 152.954 170.624 155.701 M184.408 153.742 C 184.408 154.176,184.454 154.353,184.511 154.136 C 184.567 153.920,184.567 153.565,184.511 153.348 C 184.454 153.132,184.408 153.309,184.408 153.742 M166.348 153.954 C 166.348 154.318,166.428 154.666,166.526 154.726 C 166.624 154.787,166.663 154.489,166.614 154.064 C 166.503 153.118,166.348 153.054,166.348 153.954 M222.622 154.146 C 222.622 154.308,221.953 154.423,220.765 154.465 L 218.908 154.530 218.893 156.275 L 218.878 158.021 218.959 156.332 L 219.040 154.643 220.818 154.643 C 222.426 154.643,223.145 154.415,222.757 154.027 C 222.683 153.953,222.622 154.006,222.622 154.146 M174.541 154.509 C 174.474 154.683,174.452 155.164,174.492 155.578 L 174.564 156.331 177.075 156.443 C 178.457 156.505,179.540 156.480,179.482 156.387 C 179.424 156.294,178.319 156.218,177.027 156.218 L 174.676 156.218 174.676 155.326 L 174.676 154.434 176.759 154.360 L 178.841 154.286 176.752 154.239 C 175.133 154.203,174.635 154.264,174.541 154.509 M167.974 155.721 L 167.461 156.556 168.030 155.924 C 168.343 155.577,168.599 155.197,168.599 155.080 C 168.599 154.749,168.523 154.827,167.974 155.721 M237.029 155.489 C 237.029 155.747,237.641 156.443,237.868 156.443 C 237.940 156.443,237.807 156.216,237.572 155.937 C 237.338 155.658,237.120 155.388,237.087 155.337 C 237.055 155.285,237.029 155.354,237.029 155.489 M144.417 156.443 C 144.500 156.753,144.662 157.158,144.776 157.344 C 144.921 157.579,144.939 157.510,144.834 157.119 C 144.752 156.809,144.590 156.404,144.475 156.218 C 144.330 155.984,144.313 156.052,144.417 156.443 M147.465 156.919 C 147.326 157.316,147.252 157.681,147.300 157.729 C 147.348 157.778,147.501 157.492,147.640 157.094 C 147.778 156.696,147.852 156.331,147.804 156.283 C 147.756 156.235,147.603 156.521,147.465 156.919 M155.015 156.387 C 154.958 156.480,155.702 156.556,156.669 156.556 C 157.635 156.556,158.379 156.480,158.322 156.387 C 158.265 156.294,157.521 156.218,156.669 156.218 C 155.817 156.218,155.072 156.294,155.015 156.387 M242.656 156.389 C 242.656 156.524,242.381 156.971,242.045 157.383 C 241.543 157.999,241.526 158.052,241.953 157.684 C 242.560 157.161,242.974 156.461,242.787 156.274 C 242.715 156.202,242.656 156.254,242.656 156.389 M257.344 156.380 C 257.684 156.431,258.241 156.431,258.582 156.380 C 258.922 156.328,258.644 156.286,257.963 156.286 C 257.282 156.286,257.003 156.328,257.344 156.380 M238.436 156.599 C 238.652 156.655,239.007 156.655,239.223 156.599 C 239.440 156.542,239.263 156.496,238.829 156.496 C 238.396 156.496,238.219 156.542,238.436 156.599 M152.155 157.263 C 152.030 157.589,151.971 157.898,152.022 157.949 C 152.073 158.000,152.222 157.733,152.354 157.355 C 152.647 156.516,152.470 156.433,152.155 157.263 M231.950 157.400 L 231.289 158.132 232.020 157.471 C 232.702 156.854,232.855 156.669,232.681 156.669 C 232.643 156.669,232.313 156.998,231.950 157.400 M259.651 158.244 L 258.976 158.416 259.582 158.443 C 259.915 158.457,260.250 158.368,260.326 158.244 C 260.403 158.120,260.434 158.031,260.396 158.046 C 260.358 158.060,260.023 158.150,259.651 158.244 " stroke="none" fill="#7c7c7c" fill-rule="evenodd"></path></g></svg>